<?xml version="1.0" standalone="no"?><!DOCTYPE svg PUBLIC "-//W3C//DTD SVG 1.1//EN" "http://www.w3.org/Graphics/SVG/1.1/DTD/svg11.dtd"><svg class="icon" height="512" viewBox="0 0 1024 1024" version="1.1" xmlns="http://www.w3.org/2000/svg"><path d="M518.834 210.942c-176.471 0-320.321 143.538-320.321 320.321s143.538 320.321 320.321 320.321 320.321-143.85 320.321-320.321-143.85-320.321-320.321-320.321zM287.061 707.424c4.66-0.621 10.253-1.553 16.156-2.486 49.401-8.078 130.8-24.234 143.538-45.361 4.971-8.078 8.7-18.020 11.807-28.583-52.507-24.854-89.168-81.089-89.168-146.644 0-88.546 66.798-160.315 149.441-160.315 82.643 0 149.441 71.769 149.441 160.315 0 63.381-34.175 117.75-83.575 143.85 4.66 17.088 12.117 37.594 22.681 43.497 11.184 6.524 75.186 23.301 125.207 36.041 5.281 1.243 10.253 2.486 14.913 3.728 0 0 0 0 0 0-49.401 62.758-123.654 104.391-208.162 110.295-6.834 0.621-13.67 0.932-20.816 0.932-7.767 0-15.534-0.621-23.301-1.243-84.818-6.524-159.383-49.711-208.162-114.022 0 0 0 0 0 0z" /></svg>